<?xml version="1.0" encoding="utf-8"?>
<!-- Generator: Adobe Illustrator 18.1.1, SVG Export Plug-In . SVG Version: 6.00 Build 0)  -->
<svg version="1.1" id="Layer_1" xmlns="http://www.w3.org/2000/svg" xmlns:xlink="http://www.w3.org/1999/xlink" x="0px" y="0px"
	 viewBox="0 0 720 720" enable-background="new 0 0 720 720" xml:space="preserve">
<path d="M276.2,609.3c0,20.9,0,44.4,0,59.8c0,32.8-35.7,18.2-35.7,18.2l0,0C112.2,638.7,20.1,514.3,20.1,369
	C20.1,181.3,172.3,29.1,360,29.1S699.9,181.3,699.9,369c0,146.3-92.4,271-222.1,318.9c0,0-34.9,14.1-34.9-18.7
	c0-32.8,0-103.2,0-103.2s2-26.3-23.1-49c0,0,53-2,85-21.8s57.5-40.5,68-96.3s0.5-113.6-31-138.7c0,0,18.3-51.8-3.5-88.5
	c0,0-24-13.8-93.6,34c0,0-83.7-28.5-169.7-0.2c-69.6-47.7-94.2-33.9-94.2-33.9c-21.8,36.7-3.5,88.5-3.5,88.5
	c-31.6,25.1-41.5,82.8-31,138.7s36,76.5,68,96.3c32,19.8,85,21.9,85,21.9c-18.8,17-22.4,36.5-23,45c0,0-53.4,27.6-83.7-7.4
	c-22.6-26-32.6-52.6-68.9-54.1c-3.6-0.1-7.2,0.8-10.2,2.8c-2.5,1.7-4.5,4.1-3.2,7.1c1.9,4.3,6,6.9,9,8.7c5.7,3.5,11.2,7.5,16,12.2
	c0.7,0.7,1.3,1.4,1.9,2.1c2.6,3.3,10.1,12.9,15.2,22.3c8.5,15.7,16.5,34.5,33.2,45c12,7.5,38.8,15,63.4,12.8
	S276.2,609.3,276.2,609.3z"/>
<ellipse transform="matrix(0.9511 -0.3089 0.3089 0.9511 -165.8151 110.3088)" cx="265.5" cy="578.8" rx="8.2" ry="5.3"/>
<ellipse transform="matrix(0.9886 -0.1508 0.1508 0.9886 -84.9818 42.6872)" cx="239" cy="581.7" rx="6.8" ry="4.6"/>
<ellipse transform="matrix(0.9575 0.2886 -0.2886 0.9575 175.7053 -36.5432)" cx="211.8" cy="577.7" rx="7.2" ry="4.9"/>
<ellipse transform="matrix(0.793 0.6092 -0.6092 0.793 382.3167 2.2362)" cx="187.9" cy="563.8" rx="6.7" ry="4.3"/>
<ellipse transform="matrix(0.6572 0.7537 -0.7537 0.6572 468.9171 57.6076)" cx="171.1" cy="544.3" rx="6.6" ry="4.2"/>
<ellipse transform="matrix(0.6751 0.7377 -0.7377 0.6751 439.6711 55.2956)" cx="157.1" cy="526.9" rx="6.1" ry="3.8"/>
<ellipse transform="matrix(0.8981 0.4398 -0.4398 0.8981 240.2969 -10.5381)" cx="142.9" cy="513.3" rx="4.6" ry="3.2"/>
</svg>
